<?xml version="1.0" encoding="utf-8" standalone="no"?>
<!DOCTYPE svg PUBLIC "-//W3C//DTD SVG 1.1//EN"
  "http://www.w3.org/Graphics/SVG/1.1/DTD/svg11.dtd">
<svg xmlns:xlink="http://www.w3.org/1999/xlink" width="137.77803pt" height="92.274719pt" viewBox="0 0 137.77803 92.274719" xmlns="http://www.w3.org/2000/svg" version="1.1">
 <metadata>
  <rdf:RDF xmlns:dc="http://purl.org/dc/elements/1.1/" xmlns:cc="http://creativecommons.org/ns#" xmlns:rdf="http://www.w3.org/1999/02/22-rdf-syntax-ns#">
   <cc:Work>
    <dc:type rdf:resource="http://purl.org/dc/dcmitype/StillImage"/>
    <dc:date>2025-10-21T23:57:02.224698</dc:date>
    <dc:format>image/svg+xml</dc:format>
    <dc:creator>
     <cc:Agent>
      <dc:title>Matplotlib v3.10.7, https://matplotlib.org/</dc:title>
     </cc:Agent>
    </dc:creator>
   </cc:Work>
  </rdf:RDF>
 </metadata>
 <defs>
  <style type="text/css">*{stroke-linejoin: round; stroke-linecap: butt}</style>
 </defs>
 <g id="figure_1">
  <g id="patch_1">
   <path d="M 0 92.274719 
L 137.77803 92.274719 
L 137.77803 0 
L 0 0 
z
" style="fill: #ffffff"/>
  </g>
  <g id="axes_1">
   <g id="line2d_1">
    <path d="M 63.828271 51.699839 
L 125.01555 51.699839 
" clip-path="url(#p4b5dc9bc00)" style="fill: none; stroke: #000000; stroke-width: 2.4; stroke-linecap: square"/>
   </g>
   <g id="patch_2">
    <path d="M 58.265791 23.88744 
L -1332.354191 23.88744 
L -1332.354191 135.137038 
L 58.265791 135.137038 
z
" clip-path="url(#p4b5dc9bc00)" style="fill: #ffffff; stroke: #ffffff; stroke-width: 1.8; stroke-linejoin: miter"/>
   </g>
   <g id="patch_3">
    <path d="M 75.787602 69.777899 
L 111.943722 69.777899 
L 111.943722 33.62178 
L 75.787602 33.62178 
z
" clip-path="url(#p4b5dc9bc00)" style="fill: #33b1ff; stroke: #33b1ff; stroke-width: 1.8; stroke-linejoin: miter"/>
   </g>
   <g id="text_1">
    <g clip-path="url(#p4b5dc9bc00)">
     <!-- ${q}$ -->
     <g transform="translate(40.223311 57.041011) scale(0.195 -0.195)">
      <defs>
       <path id="DejaVuSans-Oblique-71" d="M 2669 525 
Q 2438 222 2123 65 
Q 1809 -91 1428 -91 
Q 897 -91 595 267 
Q 294 625 294 1253 
Q 294 1759 480 2231 
Q 666 2703 1013 3078 
Q 1238 3322 1530 3453 
Q 1822 3584 2144 3584 
Q 2531 3584 2781 3431 
Q 3031 3278 3144 2969 
L 3244 3494 
L 3822 3494 
L 2888 -1319 
L 2309 -1319 
L 2669 525 
z
M 891 1338 
Q 891 875 1084 633 
Q 1278 391 1644 391 
Q 2188 391 2572 911 
Q 2956 1431 2956 2175 
Q 2956 2625 2757 2864 
Q 2559 3103 2188 3103 
Q 1916 3103 1684 2976 
Q 1453 2850 1281 2606 
Q 1100 2350 995 2006 
Q 891 1663 891 1338 
z
" transform="scale(0.015625)"/>
      </defs>
      <use xlink:href="#DejaVuSans-Oblique-71"/>
     </g>
    </g>
   </g>
   <g id="text_2">
    <g clip-path="url(#p4b5dc9bc00)">
     <!-- $\mathrm{S^\dagger}$ -->
     <g transform="translate(83.725662 56.004464) scale(0.156 -0.156)">
      <defs>
       <path id="DejaVuSans-53" d="M 3425 4513 
L 3425 3897 
Q 3066 4069 2747 4153 
Q 2428 4238 2131 4238 
Q 1616 4238 1336 4038 
Q 1056 3838 1056 3469 
Q 1056 3159 1242 3001 
Q 1428 2844 1947 2747 
L 2328 2669 
Q 3034 2534 3370 2195 
Q 3706 1856 3706 1288 
Q 3706 609 3251 259 
Q 2797 -91 1919 -91 
Q 1588 -91 1214 -16 
Q 841 59 441 206 
L 441 856 
Q 825 641 1194 531 
Q 1563 422 1919 422 
Q 2459 422 2753 634 
Q 3047 847 3047 1241 
Q 3047 1584 2836 1778 
Q 2625 1972 2144 2069 
L 1759 2144 
Q 1053 2284 737 2584 
Q 422 2884 422 3419 
Q 422 4038 858 4394 
Q 1294 4750 2059 4750 
Q 2388 4750 2728 4690 
Q 3069 4631 3425 4513 
z
" transform="scale(0.015625)"/>
       <path id="DejaVuSans-2020" d="M 1325 4666 
L 1875 4666 
L 1875 3353 
L 3022 3353 
L 3022 2875 
L 1875 2875 
L 1875 -616 
L 1325 -616 
L 1325 2875 
L 178 2875 
L 178 3353 
L 1325 3353 
L 1325 4666 
z
" transform="scale(0.015625)"/>
      </defs>
      <use xlink:href="#DejaVuSans-53" transform="translate(0 0.684375)"/>
      <use xlink:href="#DejaVuSans-2020" transform="translate(78.071289 38.965625) scale(0.7)"/>
     </g>
    </g>
   </g>
  </g>
 </g>
 <defs>
  <clipPath id="p4b5dc9bc00">
   <rect x="7.2" y="7.2" width="123.37803" height="77.874719"/>
  </clipPath>
 </defs>
</svg>
